NotoSerifEthiopic-Condensed.ufo
<glyph name="shaa-ethiopic" format="2">
  <advance width="545"/>
  <unicode hex="123B"/>
  <note>
uni123B
</note>
  <anchor x="272" y="826" name="top"/>
  <outline>
    <contour>
      <point x="228" y="585" type="line"/>
      <point x="317" y="585" type="line"/>
      <point x="317" y="726" type="line"/>
      <point x="228" y="726" type="line"/>
    </contour>
    <component base="bonemiddle" xOffset="25"/>
    <component base="baashort" xOffset="27"/>
  </outline>
</glyph>
<glyph name="qhi-ethiopic" format="2">
  <advance width="547"/>
  <unicode hex="1252"/>
  <note>
uni1252
</note>
  <anchor x="273" y="826" name="top"/>
  <outline>
    <contour>
      <point x="240" y="0" type="curve"/>
      <point x="368" y="0" type="line"/>
      <point x="368" y="50" type="line"/>
      <point x="336" y="50"/>
      <point x="321" y="64"/>
      <point x="321" y="123" type="curve" smooth="yes"/>
      <point x="321" y="738" type="line"/>
      <point x="222" y="738" type="line"/>
      <point x="222" y="98" type="line" smooth="yes"/>
      <point x="222" y="50"/>
      <point x="226" y="20"/>
    </contour>
    <component base="midring" xOffset="10" yOffset="19"/>
    <component base="bonemiddle" xOffset="23"/>
    <component base="rightdoubleflag" xOffset="300"/>
  </outline>
</glyph>
<glyph name="qhwee-ethiopic" format="2">
  <advance width="559"/>
  <unicode hex="125C"/>
  <note>
uni125C
</note>
  <anchor x="279" y="826" name="top"/>
  <outline>
    <contour>
      <point x="185" y="0" type="line"/>
      <point x="334" y="0" type="line"/>
      <point x="334" y="50" type="line"/>
      <point x="185" y="50" type="line"/>
    </contour>
    <component base="qhee-ethiopic" xOffset="10"/>
    <component base="leftsingleflag" xOffset="20" yOffset="-354"/>
  </outline>
</glyph>
<glyph name="za-ethiopic" format="2">
  <advance width="567"/>
  <unicode hex="12D8"/>
  <note>
uni12D8
</note>
  <anchor x="283" y="718" name="top"/>
  <outline>
    <contour>
      <point x="149" y="348" type="line"/>
      <point x="393" y="348" type="line"/>
      <point x="393" y="398" type="line"/>
      <point x="149" y="398" type="line"/>
    </contour>
    <component base="stem1" xOffset="292"/>
    <component base="stem1"/>
  </outline>
</glyph>
<glyph name="dda-ethiopic" format="2">
  <advance width="542"/>
  <unicode hex="12F8"/>
  <note>
uni12F8
</note>
  <anchor x="271" y="830" name="top"/>
  <outline>
    <contour>
      <point x="249" y="702" type="line"/>
      <point x="336" y="702" type="line"/>
      <point x="336" y="830" type="line"/>
      <point x="249" y="830" type="line"/>
    </contour>
    <component base="da-ethiopic"/>
  </outline>
</glyph>
<glyph name="ddee-ethiopic" format="2">
  <advance width="587"/>
  <unicode hex="12FC"/>
  <note>
uni12FC
</note>
  <anchor x="293" y="772" name="top"/>
  <outline>
    <contour>
      <point x="267" y="635" type="line"/>
      <point x="358" y="635" type="line"/>
      <point x="358" y="772" type="line"/>
      <point x="267" y="772" type="line"/>
    </contour>
    <component base="dee-ethiopic"/>
  </outline>
</glyph>
<glyph name="ddwa-ethiopic" format="2">
  <advance width="766"/>
  <unicode hex="12FF"/>
  <note>
uni12FF
</note>
  <anchor x="378" y="830" name="top"/>
  <outline>
    <contour>
      <point x="307" y="702" type="line"/>
      <point x="394" y="702" type="line"/>
      <point x="394" y="830" type="line"/>
      <point x="307" y="830" type="line"/>
    </contour>
    <component base="dwa-ethiopic"/>
  </outline>
</glyph>
<glyph name="jee-ethiopic" format="2">
  <advance width="646"/>
  <unicode hex="1304"/>
  <note>
uni1304
</note>
  <anchor x="323" y="825" name="top"/>
  <outline>
    <contour>
      <point x="168" y="166" type="line"/>
      <point x="450" y="166" type="line"/>
      <point x="500" y="216" type="line"/>
      <point x="168" y="216" type="line"/>
    </contour>
    <contour>
      <point x="268" y="580" type="line"/>
      <point x="359" y="580" type="line"/>
      <point x="359" y="727" type="line"/>
      <point x="268" y="727" type="line"/>
    </contour>
    <component base="ballsmall" xOffset="366" yOffset="-200"/>
    <component base="leftsingleflag" yOffset="-188"/>
    <component base="bonelong" xOffset="45" yOffset="-2"/>
    <component base="upperloopsmall" xOffset="104"/>
  </outline>
</glyph>
<glyph name="phee-ethiopic" format="2">
  <advance width="655"/>
  <unicode hex="1334"/>
  <note>
uni1334
</note>
  <anchor x="343" y="814" name="top"/>
  <outline>
    <contour>
      <point x="203" y="695" type="line"/>
      <point x="293" y="695" type="line"/>
      <point x="293" y="814" type="line"/>
      <point x="203" y="814" type="line"/>
    </contour>
    <component base="tsee-ethiopic"/>
  </outline>
</glyph>
<glyph name="tza-ethiopic" format="2">
  <advance width="522"/>
  <unicode hex="1340"/>
  <note>
uni1340
</note>
  <anchor x="261" y="723" name="top"/>
  <outline>
    <contour>
      <point x="124" y="330" type="line"/>
      <point x="394" y="330" type="line"/>
      <point x="394" y="379" type="line"/>
      <point x="124" y="379" type="line"/>
    </contour>
    <component base="aPharyngeal-ethiopic"/>
  </outline>
</glyph>
<glyph name="tzo-ethiopic" format="2">
  <advance width="432"/>
  <unicode hex="1346"/>
  <note>
uni1346
</note>
  <anchor x="222" y="719" name="top"/>
  <outline>
    <contour>
      <point x="128" y="526" type="line"/>
      <point x="336" y="526" type="line"/>
      <point x="336" y="576" type="line"/>
      <point x="128" y="576" type="line"/>
    </contour>
    <component base="oPharyngeal-ethiopic"/>
  </outline>
</glyph>
<glyph name="prefacecolon-ethiopic" format="2">
  <advance width="474"/>
  <unicode hex="1366"/>
  <note>
uni1366
</note>
  <outline>
    <contour>
      <point x="214" y="329" type="line"/>
      <point x="426" y="329" type="line"/>
      <point x="426" y="407" type="line"/>
      <point x="214" y="407" type="line"/>
    </contour>
    <component base="yizet-ethiopic" xOffset="-1" yOffset="160"/>
    <component base="yizet-ethiopic" xOffset="-1" yOffset="440"/>
  </outline>
</glyph>
<glyph name="pwee-ethiopic" format="2">
  <advance width="542"/>
  <unicode hex="138E"/>
  <note>
uni138E
</note>
  <anchor x="271" y="714" name="top"/>
  <outline>
    <contour>
      <point x="188" y="0" type="line"/>
      <point x="327" y="0" type="line"/>
      <point x="327" y="50" type="line"/>
      <point x="188" y="50" type="line"/>
    </contour>
    <component base="pee-ethiopic"/>
    <component base="leftsingleflag" xOffset="14" yOffset="-354"/>
  </outline>
</glyph>
<glyph name="deretHidet-ethiopic" format="2">
  <advance width="727"/>
  <unicode hex="1398"/>
  <note>
uni1398
</note>
  <outline>
    <contour>
      <point x="188" y="0" type="line"/>
      <point x="689" y="0" type="line"/>
      <point x="689" y="62" type="line"/>
      <point x="188" y="62" type="line"/>
    </contour>
    <component base="deret-ethiopic"/>
  </outline>
</glyph>
<glyph name="kurt-ethiopic" format="2">
  <advance width="351"/>
  <unicode hex="1399"/>
  <note>
uni1399
</note>
  <outline>
    <contour>
      <point x="50" y="0" type="line"/>
      <point x="134" y="0" type="line"/>
      <point x="134" y="614" type="line"/>
      <point x="50" y="614" type="line"/>
    </contour>
    <component base="rightdoubleflag" xOffset="113" yOffset="272"/>
  </outline>
</glyph>
<glyph name="moa-ethiopic" format="2">
  <advance width="766"/>
  <unicode hex="2D81"/>
  <note>
uni2D81
</note>
  <anchor x="381" y="714" name="top"/>
  <outline>
    <contour>
      <point x="183" y="114" type="line"/>
      <point x="319" y="114" type="line"/>
      <point x="319" y="164" type="line"/>
      <point x="183" y="164" type="line"/>
    </contour>
    <component base="mo-ethiopic" xOffset="13"/>
    <component base="leftdoubleflag" yOffset="114"/>
  </outline>
</glyph>
<glyph name="poa-ethiopic" format="2">
  <advance width="653"/>
  <unicode hex="2D92"/>
  <note>
uni2D92
</note>
  <anchor x="326" y="714" name="top"/>
  <outline>
    <contour>
      <point x="205" y="329" type="line"/>
      <point x="282" y="329" type="line"/>
      <point x="314" y="379" type="line"/>
      <point x="205" y="379" type="line"/>
    </contour>
    <component base="po-ethiopic" xOffset="96"/>
    <component base="leftdoubleflag" yOffset="329"/>
  </outline>
</glyph>
<glyph name="ggwee-ethiopic" format="2">
  <advance width="621"/>
  <unicode hex="2D95"/>
  <note>
uni2D95
</note>
  <anchor x="317" y="779" name="top"/>
  <outline>
    <contour>
      <point x="187" y="0" type="line"/>
      <point x="389" y="0" type="line"/>
      <point x="364" y="50" type="line"/>
      <point x="187" y="50" type="line"/>
    </contour>
    <component base="ggee-ethiopic"/>
    <component base="leftsingleflag" xOffset="3" yOffset="-354"/>
  </outline>
</glyph>
<glyph name="qyi-ethiopic" format="2">
  <advance width="551"/>
  <unicode hex="2DC2"/>
  <note>
uni2DC2
</note>
  <anchor x="275" y="760" name="top"/>
  <outline>
    <contour>
      <point x="234" y="0" type="curve"/>
      <point x="345" y="0" type="line"/>
      <point x="345" y="50" type="line"/>
      <point x="321" y="50"/>
      <point x="306" y="63"/>
      <point x="306" y="117" type="curve" smooth="yes"/>
      <point x="306" y="629" type="line"/>
      <point x="211" y="629" type="line"/>
      <point x="211" y="78" type="line" smooth="yes"/>
      <point x="211" y="40"/>
      <point x="220" y="17"/>
    </contour>
    <component base="rightdoubleflag" xOffset="313"/>
    <component base="midring" yOffset="-37"/>
    <component base="winghatshort" xOffset="70"/>
  </outline>
</glyph>
<glyph name="tthu-ethiopic" format="2">
  <advance width="651"/>
  <unicode hex="AB01"/>
  <note>
uniAB01
</note>
  <anchor x="358" y="765" name="top"/>
  <outline>
    <contour>
      <point x="110" y="294" type="line"/>
      <point x="425" y="294" type="line"/>
      <point x="425" y="344" type="line"/>
      <point x="110" y="344" type="line"/>
    </contour>
    <component base="su-ethiopic"/>
  </outline>
</glyph>
<glyph name="tthee-ethiopic" format="2">
  <advance width="661"/>
  <unicode hex="AB04"/>
  <note>
uniAB04
</note>
  <anchor x="356" y="765" name="top"/>
  <outline>
    <contour>
      <point x="109" y="283" type="line"/>
      <point x="411" y="283" type="line"/>
      <point x="411" y="333" type="line"/>
      <point x="109" y="333" type="line"/>
    </contour>
    <component base="see-ethiopic" xOffset="2"/>
  </outline>
</glyph>
<glyph name="ttho-ethiopic" format="2">
  <advance width="512"/>
  <unicode hex="AB06"/>
  <note>
uniAB06
</note>
  <anchor x="278" y="765" name="top"/>
  <outline>
    <contour>
      <point x="123" y="321" type="line"/>
      <point x="405" y="321" type="line"/>
      <point x="405" y="366" type="line"/>
      <point x="123" y="366" type="line"/>
    </contour>
    <component base="so-ethiopic" xOffset="2"/>
  </outline>
</glyph>
<glyph name="ddhee-ethiopic" format="2">
  <advance width="587"/>
  <unicode hex="AB0C"/>
  <note>
uniAB0C
</note>
  <anchor x="293" y="772" name="top"/>
  <outline>
    <contour>
      <point x="194" y="490" type="line"/>
      <point x="408" y="490" type="line"/>
      <point x="408" y="532" type="line"/>
      <point x="194" y="532" type="line"/>
    </contour>
    <component base="ddee-ethiopic"/>
  </outline>
</glyph>
<glyph name="ddhe-ethiopic" format="2">
  <advance width="657"/>
  <unicode hex="AB0D"/>
  <note>
uniAB0D
</note>
  <anchor x="328" y="830" name="top"/>
  <outline>
    <contour>
      <point x="182" y="538" type="line"/>
      <point x="396" y="538" type="line"/>
      <point x="396" y="580" type="line"/>
      <point x="182" y="580" type="line"/>
    </contour>
    <component base="dde-ethiopic"/>
  </outline>
</glyph>
<glyph name="ddho-ethiopic" format="2">
  <advance width="618"/>
  <unicode hex="AB0E"/>
  <note>
uniAB0E
</note>
  <anchor x="317" y="830" name="top"/>
  <outline>
    <contour>
      <point x="208" y="558" type="line"/>
      <point x="422" y="558" type="line"/>
      <point x="422" y="600" type="line"/>
      <point x="208" y="600" type="line"/>
    </contour>
    <component base="ddo-ethiopic"/>
  </outline>
</glyph>
<glyph name="eightIni-ethiopic" format="2">
  <advance width="542"/>
  <note>
uni1370
</note>
  <outline>
    <contour>
      <point x="146" y="733" type="line"/>
      <point x="562" y="733" type="line"/>
      <point x="562" y="783" type="line"/>
      <point x="146" y="783" type="line"/>
    </contour>
    <contour>
      <point x="146" y="0" type="line"/>
      <point x="562" y="0" type="line"/>
      <point x="562" y="50" type="line"/>
      <point x="146" y="50" type="line"/>
    </contour>
    <component base="eightform"/>
    <component base="leftsingleflag" xOffset="9" yOffset="379"/>
    <component base="leftsingleflag" xOffset="1" yOffset="-354"/>
  </outline>
</glyph>
<glyph name="eightyIni-ethiopic" format="2">
  <advance width="660"/>
  <note>
uni1379
</note>
  <outline>
    <contour>
      <point x="147" y="733" type="line"/>
      <point x="680" y="733" type="line"/>
      <point x="680" y="783" type="line"/>
      <point x="147" y="783" type="line"/>
    </contour>
    <contour>
      <point x="147" y="0" type="line"/>
      <point x="680" y="0" type="line"/>
      <point x="680" y="50" type="line"/>
      <point x="147" y="50" type="line"/>
    </contour>
    <component base="eightyform"/>
    <component base="leftsingleflag" xOffset="25" yOffset="379"/>
    <component base="leftsingleflag" xOffset="11" yOffset="-354"/>
  </outline>
</glyph>
<glyph name="fortyIni-ethiopic" format="2">
  <advance width="504"/>
  <note>
uni1375
</note>
  <outline>
    <contour>
      <point x="133" y="733" type="line"/>
      <point x="524" y="733" type="line"/>
      <point x="524" y="783" type="line"/>
      <point x="133" y="783" type="line"/>
    </contour>
    <contour>
      <point x="133" y="0" type="line"/>
      <point x="524" y="0" type="line"/>
      <point x="524" y="50" type="line"/>
      <point x="133" y="50" type="line"/>
    </contour>
    <component base="fortyform" xOffset="-13"/>
    <component base="leftsingleflag" xOffset="5" yOffset="379"/>
    <component base="leftsingleflag" yOffset="-354"/>
  </outline>
</glyph>
<glyph name="fortyMed-ethiopic" format="2">
  <advance width="492"/>
  <note>
uni1375
</note>
  <outline>
    <contour>
      <point x="-20" y="733" type="line"/>
      <point x="512" y="733" type="line"/>
      <point x="512" y="783" type="line"/>
      <point x="-20" y="783" type="line"/>
    </contour>
    <contour>
      <point x="-20" y="0" type="line"/>
      <point x="512" y="0" type="line"/>
      <point x="512" y="49" type="line"/>
      <point x="-20" y="49" type="line"/>
    </contour>
    <component base="fortyform" xOffset="-25"/>
  </outline>
</glyph>
<glyph name="sixtyIni-ethiopic" format="2">
  <advance width="527"/>
  <note>
uni1377
</note>
  <outline>
    <contour>
      <point x="145" y="733" type="line"/>
      <point x="547" y="733" type="line"/>
      <point x="547" y="783" type="line"/>
      <point x="145" y="783" type="line"/>
    </contour>
    <contour>
      <point x="145" y="0" type="line"/>
      <point x="547" y="0" type="line"/>
      <point x="547" y="50" type="line"/>
      <point x="145" y="50" type="line"/>
    </contour>
    <component base="sixtyform"/>
    <component base="leftsingleflag" xOffset="8" yOffset="379"/>
    <component base="leftsingleflag" xOffset="4" yOffset="-354"/>
  </outline>
</glyph>
